<?xml version="1.0" encoding="UTF-8"?>
<svg xmlns="http://www.w3.org/2000/svg" viewBox="0 0 400 300" width="400" height="300">
  <rect width="100%" height="100%" fill="#f0f0f0"/>
  <rect x="100" y="30" width="200" height="240" fill="#ffffff" stroke="#cccccc" stroke-width="2"/>
  <!-- 스프링 제본 표현 -->
  <rect x="90" y="30" width="10" height="240" fill="#1a3a5f"/>
  <circle cx="95" cy="50" r="4" fill="#ffffff" stroke="#cccccc"/>
  <circle cx="95" cy="80" r="4" fill="#ffffff" stroke="#cccccc"/>
  <circle cx="95" cy="110" r="4" fill="#ffffff" stroke="#cccccc"/>
  <circle cx="95" cy="140" r="4" fill="#ffffff" stroke="#cccccc"/>
  <circle cx="95" cy="170" r="4" fill="#ffffff" stroke="#cccccc"/>
  <circle cx="95" cy="200" r="4" fill="#ffffff" stroke="#cccccc"/>
  <circle cx="95" cy="230" r="4" fill="#ffffff" stroke="#cccccc"/>
  <circle cx="95" cy="260" r="4" fill="#ffffff" stroke="#cccccc"/>
  
  <!-- 표지 표현 -->
  <rect x="110" y="50" width="180" height="30" fill="#1a3a5f"/>
  <text x="200" y="70" font-family="Arial" font-size="14" fill="#ffffff" text-anchor="middle">연구 보고서</text>
  
  <!-- 내용 표현 -->
  <line x1="120" y1="100" x2="280" y2="100" stroke="#333333" stroke-width="1"/>
  <line x1="120" y1="120" x2="280" y2="120" stroke="#333333" stroke-width="1"/>
  <line x1="120" y1="140" x2="280" y2="140" stroke="#333333" stroke-width="1"/>
  <line x1="120" y1="160" x2="280" y2="160" stroke="#333333" stroke-width="1"/>
  <line x1="120" y1="180" x2="280" y2="180" stroke="#333333" stroke-width="1"/>
  <line x1="120" y1="200" x2="250" y2="200" stroke="#333333" stroke-width="1"/>
  <line x1="120" y1="220" x2="200" y2="220" stroke="#333333" stroke-width="1"/>
</svg>