<?xml version="1.0" encoding="UTF-8"?>
<svg xmlns="http://www.w3.org/2000/svg" style="display: none;">
  <!-- 프린트 아이콘 -->
  <symbol id="icon-print" viewBox="0 0 24 24">
    <path d="M19 8H5c-1.66 0-3 1.34-3 3v6h4v4h12v-4h4v-6c0-1.66-1.34-3-3-3zm-3 11H8v-5h8v5zm3-7c-.55 0-1-.45-1-1s.45-1 1-1 1 .45 1 1-.45 1-1 1zm-1-9H6v4h12V3z"/>
  </symbol>
  
  <!-- 복사 아이콘 -->
  <symbol id="icon-copy" viewBox="0 0 24 24">
    <path d="M16 1H4c-1.1 0-2 .9-2 2v14h2V3h12V1zm3 4H8c-1.1 0-2 .9-2 2v14c0 1.1.9 2 2 2h11c1.1 0 2-.9 2-2V7c0-1.1-.9-2-2-2zm0 16H8V7h11v14z"/>
  </symbol>
  
  <!-- 제본 아이콘 -->
  <symbol id="icon-binding" viewBox="0 0 24 24">
    <path d="M19 3H5c-1.1 0-2 .9-2 2v14c0 1.1.9 2 2 2h14c1.1 0 2-.9 2-2V5c0-1.1-.9-2-2-2zm-5 14H8c-.55 0-1-.45-1-1s.45-1 1-1h6c.55 0 1 .45 1 1s-.45 1-1 1zm3-4H8c-.55 0-1-.45-1-1s.45-1 1-1h9c.55 0 1 .45 1 1s-.45 1-1 1zm0-4H8c-.55 0-1-.45-1-1s.45-1 1-1h9c.55 0 1 .45 1 1s-.45 1-1 1zM7 9.5c-.55 0-1-.45-1-1s.45-1 1-1 1 .45 1 1-.45 1-1 1zm0 4c-.55 0-1-.45-1-1s.45-1 1-1 1 .45 1 1-.45 1-1 1zm0 4c-.55 0-1-.45-1-1s.45-1 1-1 1 .45 1 1-.45 1-1 1z"/>
  </symbol>
  
  <!-- 위치 아이콘 -->
  <symbol id="icon-location" viewBox="0 0 24 24">
    <path d="M12 2C8.13 2 5 5.13 5 9c0 5.25 7 13 7 13s7-7.75 7-13c0-3.87-3.13-7-7-7zm0 9.5c-1.38 0-2.5-1.12-2.5-2.5s1.12-2.5 2.5-2.5 2.5 1.12 2.5 2.5-1.12 2.5-2.5 2.5z"/>
  </symbol>
  
  <!-- 전화 아이콘 -->
  <symbol id="icon-phone" viewBox="0 0 24 24">
    <path d="M20.01 15.38c-1.23 0-2.42-.2-3.53-.56-.35-.12-.74-.03-1.01.24l-1.57 1.97c-2.83-1.35-5.48-3.9-6.89-6.83l1.95-1.66c.27-.28.35-.67.24-1.02-.37-1.11-.56-2.3-.56-3.53 0-.54-.45-.99-.99-.99H4.19C3.65 3 3 3.24 3 3.99 3 13.28 10.73 21 20.01 21c.71 0 .99-.63.99-1.18v-3.45c0-.54-.45-.99-.99-.99z"/>
  </symbol>
  
  <!-- 이메일 아이콘 -->
  <symbol id="icon-email" viewBox="0 0 24 24">
    <path d="M20 4H4c-1.1 0-1.99.9-1.99 2L2 18c0 1.1.9 2 2 2h16c1.1 0 2-.9 2-2V6c0-1.1-.9-2-2-2zm0 4l-8 5-8-5V6l8 5 8-5v2z"/>
  </symbol>
  
  <!-- 시계 아이콘 -->
  <symbol id="icon-clock" viewBox="0 0 24 24">
    <path d="M11.99 2C6.47 2 2 6.48 2 12s4.47 10 9.99 10C17.52 22 22 17.52 22 12S17.52 2 11.99 2zM12 20c-4.42 0-8-3.58-8-8s3.58-8 8-8 8 3.58 8 8-3.58 8-8 8z"/>
    <path d="M12.5 7H11v6l5.25 3.15.75-1.23-4.5-2.67z"/>
  </symbol>
  
  <!-- 문서 아이콘 -->
  <symbol id="icon-document" viewBox="0 0 24 24">
    <path d="M14 2H6c-1.1 0-1.99.9-1.99 2L4 20c0 1.1.89 2 1.99 2H18c1.1 0 2-.9 2-2V8l-6-6zm2 16H8v-2h8v2zm0-4H8v-2h8v2zm-3-5V3.5L18.5 9H13z"/>
  </symbol>
  
  <!-- 메뉴 아이콘 -->
  <symbol id="icon-menu" viewBox="0 0 24 24">
    <path d="M3 18h18v-2H3v2zm0-5h18v-2H3v2zm0-7v2h18V6H3z"/>
  </symbol>
  
  <!-- 화살표 아이콘 -->
  <symbol id="icon-arrow" viewBox="0 0 24 24">
    <path d="M8.59 16.59L13.17 12 8.59 7.41 10 6l6 6-6 6-1.41-1.41z"/>
  </symbol>
  
  <!-- 체크 아이콘 -->
  <symbol id="icon-check" viewBox="0 0 24 24">
    <path d="M9 16.17L4.83 12l-1.42 1.41L9 19 21 7l-1.41-1.41L9 16.17z"/>
  </symbol>

  <!-- 스캔 아이콘 -->
  <symbol id="icon-scan" viewBox="0 0 24 24">
    <path d="M9.5 6.5v3h-3v-3h3M11 5H5v6h6V5zm-1.5 9.5v3h-3v-3h3M11 13H5v6h6v-6zm6.5-6.5v3h-3v-3h3M19 5h-6v6h6V5zm-6 8h1.5v1.5H13V13zm1.5 1.5H16V16h-1.5v-1.5zM16 13h1.5v1.5H16V13zm-3 3h1.5v1.5H13V16zm1.5 1.5H16V19h-1.5v-1.5zM16 16h1.5v1.5H16V16zm1.5-1.5H19V16h-1.5v-1.5zm0 3H19V19h-1.5v-1.5zM22 7h-2V4h-3V2h5v5zm0 15v-5h-2v3h-3v2h5zM2 22h5v-2H4v-3H2v5zM2 2v5h2V4h3V2H2z"/>
  </symbol>

  <!-- 카탈로그 아이콘 -->
  <symbol id="icon-catalog" viewBox="0 0 24 24">
    <path d="M4 6H2v14c0 1.1.9 2 2 2h14v-2H4V6zm16-4H8c-1.1 0-2 .9-2 2v12c0 1.1.9 2 2 2h12c1.1 0 2-.9 2-2V4c0-1.1-.9-2-2-2zm-1 9H9V9h10v2zm-4 4H9v-2h6v2zm4-8H9V5h10v2z"/>
  </symbol>
</svg>
