<?xml version="1.0" encoding="UTF-8"?>
<svg xmlns="http://www.w3.org/2000/svg" viewBox="0 0 400 300" width="400" height="300">
  <rect width="100%" height="100%" fill="#f0f0f0"/>
  
  <!-- 제본된 책 표현 -->
  <rect x="100" y="80" width="40" height="140" fill="#1a3a5f"/>
  <rect x="140" y="80" width="160" height="140" fill="#ffffff" stroke="#cccccc" stroke-width="1"/>
  
  <!-- 제본 링 표현 -->
  <circle cx="120" cy="100" r="8" fill="#f27935" stroke="#ffffff" stroke-width="2"/>
  <circle cx="120" cy="130" r="8" fill="#f27935" stroke="#ffffff" stroke-width="2"/>
  <circle cx="120" cy="160" r="8" fill="#f27935" stroke="#ffffff" stroke-width="2"/>
  <circle cx="120" cy="190" r="8" fill="#f27935" stroke="#ffffff" stroke-width="2"/>
  
  <!-- 내용물 표현 -->
  <line x1="160" y1="100" x2="280" y2="100" stroke="#cccccc" stroke-width="1"/>
  <line x1="160" y1="120" x2="280" y2="120" stroke="#cccccc" stroke-width="1"/>
  <line x1="160" y1="140" x2="280" y2="140" stroke="#cccccc" stroke-width="1"/>
  <line x1="160" y1="160" x2="280" y2="160" stroke="#cccccc" stroke-width="1"/>
  <line x1="160" y1="180" x2="280" y2="180" stroke="#cccccc" stroke-width="1"/>
  <line x1="160" y1="200" x2="240" y2="200" stroke="#cccccc" stroke-width="1"/>
  
  <!-- 제본 도구 표현 -->
  <rect x="320" y="120" width="30" height="80" fill="#333333" rx="2" ry="2"/>
  <rect x="330" y="110" width="10" height="10" fill="#333333"/>
  <rect x="330" y="200" width="10" height="10" fill="#333333"/>
</svg>