<?xml version="1.0" encoding="UTF-8"?>
<svg xmlns="http://www.w3.org/2000/svg" viewBox="0 0 400 300" width="400" height="300">
  <rect width="100%" height="100%" fill="#f0f0f0"/>
  
  <!-- 스캐너 이미지 -->
  <rect x="100" y="120" width="200" height="60" fill="#1a3a5f" rx="5" ry="5"/>
  <rect x="120" y="140" width="160" height="5" fill="#f27935"/>
  <rect x="120" y="155" width="160" height="5" fill="#f27935"/>
  
  <rect x="120" y="80" width="160" height="40" fill="#f5f5f5" stroke="#cccccc" stroke-width="1"/>
  <rect x="140" y="180" width="120" height="20" fill="#f5f5f5" stroke="#cccccc" stroke-width="1"/>
  
  <!-- 빛 효과 -->
  <rect x="120" y="130" width="160" height="10" fill="#ffffff" opacity="0.3"/>
  
  <!-- 스캔 중인 문서 -->
  <rect x="120" y="80" width="160" height="40" fill="#ffffff" stroke="#cccccc" stroke-width="1"/>
  <line x1="140" y1="95" x2="260" y2="95" stroke="#333333" stroke-width="1"/>
  <line x1="140" y1="105" x2="260" y2="105" stroke="#333333" stroke-width="1"/>
  <line x1="140" y1="115" x2="200" y2="115" stroke="#333333" stroke-width="1"/>
  
  <!-- 디지털 파일 표현 -->
  <rect x="290" y="80" width="60" height="80" fill="#ffffff" stroke="#1a3a5f" stroke-width="2" rx="5" ry="5"/>
  <rect x="300" y="90" width="40" height="5" fill="#1a3a5f"/>
  <rect x="300" y="100" width="40" height="5" fill="#1a3a5f"/>
  <rect x="300" y="110" width="40" height="5" fill="#1a3a5f"/>
  <rect x="300" y="120" width="25" height="5" fill="#1a3a5f"/>
  <circle cx="315" cy="140" r="10" fill="#f27935"/>
  <text x="315" y="144" font-family="Arial" font-size="12" fill="#ffffff" text-anchor="middle">PDF</text>
</svg>