<?xml version="1.0" encoding="UTF-8"?>
<svg width="800" height="600" viewBox="0 0 800 600" xmlns="http://www.w3.org/2000/svg">
  <!-- 배경 -->
  <rect width="800" height="600" fill="#f5f5f5" rx="15" ry="15"/>
  
  <!-- 홍보물 디자인 요소 -->
  
  <!-- 메인 전단지 -->
  <rect x="150" y="120" width="300" height="400" rx="8" ry="8" fill="#ffffff" stroke="#dddddd" stroke-width="2"/>
  <rect x="180" y="150" width="240" height="100" fill="#1a3a5f"/>
  <text x="300" y="205" font-family="'Noto Sans KR', sans-serif" font-size="24" font-weight="bold" fill="#ffffff" text-anchor="middle">세원프린팅</text>
  <text x="300" y="235" font-family="'Noto Sans KR', sans-serif" font-size="14" fill="#ffffff" text-anchor="middle">인쇄·복사·제본 전문</text>
  
  <rect x="180" y="270" width="240" height="20" fill="#f27935"/>
  <rect x="180" y="300" width="200" height="8" fill="#dddddd"/>
  <rect x="180" y="320" width="220" height="8" fill="#dddddd"/>
  <rect x="180" y="340" width="180" height="8" fill="#dddddd"/>
  <rect x="180" y="360" width="210" height="8" fill="#dddddd"/>
  
  <rect x="180" y="390" width="100" height="40" rx="20" ry="20" fill="#f27935"/>
  <text x="230" y="415" font-family="'Noto Sans KR', sans-serif" font-size="14" fill="#ffffff" text-anchor="middle">문의하기</text>
  
  <!-- 브로슈어 -->
  <rect x="350" y="180" width="260" height="320" rx="5" ry="5" fill="#ffffff" stroke="#dddddd" stroke-width="2" transform="rotate(15, 480, 340)"/>
  <rect x="380" y="210" width="200" height="80" fill="#f27935" transform="rotate(15, 480, 340)"/>
  <text x="480" y="255" font-family="'Noto Sans KR', sans-serif" font-size="16" fill="#ffffff" text-anchor="middle" transform="rotate(15, 480, 340)">각종 홍보물</text>
  
  <rect x="380" y="300" width="200" height="5" fill="#dddddd" transform="rotate(15, 480, 340)"/>
  <rect x="380" y="315" width="180" height="5" fill="#dddddd" transform="rotate(15, 480, 340)"/>
  <rect x="380" y="330" width="190" height="5" fill="#dddddd" transform="rotate(15, 480, 340)"/>
  <rect x="380" y="345" width="170" height="5" fill="#dddddd" transform="rotate(15, 480, 340)"/>
  <rect x="380" y="360" width="200" height="5" fill="#dddddd" transform="rotate(15, 480, 340)"/>
  
  <!-- 명함 -->
  <rect x="470" y="120" width="180" height="100" rx="3" ry="3" fill="#ffffff" stroke="#dddddd" stroke-width="2" transform="rotate(-5, 560, 170)"/>
  <text x="560" y="160" font-family="'Noto Sans KR', sans-serif" font-size="14" font-weight="bold" fill="#1a3a5f" text-anchor="middle" transform="rotate(-5, 560, 170)">세원프린팅</text>
  <text x="560" y="180" font-family="'Noto Sans KR', sans-serif" font-size="10" fill="#333333" text-anchor="middle" transform="rotate(-5, 560, 170)">02-6015-3100</text>
  
  <!-- 메뉴판 요소 -->
  <rect x="500" y="350" width="160" height="200" rx="5" ry="5" fill="#ffffff" stroke="#dddddd" stroke-width="2" transform="rotate(-8, 580, 450)"/>
  <rect x="520" y="370" width="120" height="20" fill="#1a3a5f" transform="rotate(-8, 580, 450)"/>
  <text x="580" y="385" font-family="'Noto Sans KR', sans-serif" font-size="12" fill="#ffffff" text-anchor="middle" transform="rotate(-8, 580, 450)">메뉴</text>
  
  <rect x="520" y="400" width="120" height="3" fill="#dddddd" transform="rotate(-8, 580, 450)"/>
  <rect x="520" y="410" width="80" height="3" fill="#dddddd" transform="rotate(-8, 580, 450)"/>
  <rect x="520" y="420" width="120" height="3" fill="#dddddd" transform="rotate(-8, 580, 450)"/>
  <rect x="520" y="430" width="100" height="3" fill="#dddddd" transform="rotate(-8, 580, 450)"/>
  
  <rect x="520" y="450" width="120" height="3" fill="#dddddd" transform="rotate(-8, 580, 450)"/>
  <rect x="520" y="460" width="80" height="3" fill="#dddddd" transform="rotate(-8, 580, 450)"/>
  <rect x="520" y="470" width="120" height="3" fill="#dddddd" transform="rotate(-8, 580, 450)"/>
  <rect x="520" y="480" width="100" height="3" fill="#dddddd" transform="rotate(-8, 580, 450)"/>
  
  <!-- 장식 요소 -->
  <circle cx="180" y="450" r="30" fill="#f27935" opacity="0.2"/>
  <circle cx="650" y="190" r="40" fill="#1a3a5f" opacity="0.2"/>
  <circle cx="700" y="450" r="25" fill="#f27935" opacity="0.2"/>
  
  <!-- 타이틀 -->
  <text x="400" y="60" font-family="'Noto Sans KR', sans-serif" font-size="28" font-weight="bold" fill="#1a3a5f" text-anchor="middle">각종 홍보물 제작</text>
  <rect x="350" y="75" width="100" height="3" fill="#f27935" rx="1.5" ry="1.5"/>
</svg>